<svg width="24" height="24" viewBox="0 0 24 24" fill="none" xmlns="http://www.w3.org/2000/svg">
<path fill-rule="evenodd" clip-rule="evenodd" d="M15.75 4.50912C13.9446 4.50912 12.4263 5.80318 12.0762 7.50912H2.25C1.83579 7.50912 1.5 7.84491 1.5 8.25912C1.5 8.67333 1.83579 9.00912 2.25 9.00912H12.0762C12.4263 10.7151 13.9446 12.0091 15.75 12.0091C17.5554 12.0091 19.0737 10.7151 19.4238 9.00912H21.75C22.1642 9.00912 22.5 8.67333 22.5 8.25912C22.5 7.84491 22.1642 7.50912 21.75 7.50912H19.4238C19.0737 5.80318 17.5554 4.50912 15.75 4.50912ZM15.75 6.00912C17.0015 6.00912 18 7.00762 18 8.25912C18 9.51063 17.0015 10.5091 15.75 10.5091C14.4985 10.5091 13.5 9.51063 13.5 8.25912C13.5 7.00762 14.4985 6.00912 15.75 6.00912Z" fill="#5F625D"/>
<path fill-rule="evenodd" clip-rule="evenodd" d="M8.25 12.0091C6.44461 12.0091 4.92634 13.3032 4.57617 15.0091H2.25C1.83579 15.0091 1.5 15.3449 1.5 15.7591C1.5 16.1733 1.83579 16.5091 2.25 16.5091H4.57617C4.92634 18.2151 6.44461 19.5091 8.25 19.5091C10.0554 19.5091 11.5737 18.2151 11.9238 16.5091H21.75C22.1642 16.5091 22.5 16.1733 22.5 15.7591C22.5 15.3449 22.1642 15.0091 21.75 15.0091H11.9238C11.5737 13.3032 10.0554 12.0091 8.25 12.0091ZM8.25 13.5091C9.5015 13.5091 10.5 14.5076 10.5 15.7591C10.5 17.0106 9.5015 18.0091 8.25 18.0091C6.9985 18.0091 6 17.0106 6 15.7591C6 14.5076 6.9985 13.5091 8.25 13.5091Z" fill="#5F625D"/>
</svg>
