<svg width="32" height="32" viewBox="0 0 32 32" fill="none" xmlns="http://www.w3.org/2000/svg">
<path d="M28.4444 4.44444H3.55556C2.61256 4.44444 1.70819 4.81904 1.0414 5.48584C0.374602 6.15264 0 7.05701 0 8L0 24C0 24.943 0.374602 25.8474 1.0414 26.5142C1.70819 27.181 2.61256 27.5556 3.55556 27.5556H28.4444C29.3874 27.5556 30.2918 27.181 30.9586 26.5142C31.6254 25.8474 32 24.943 32 24V8C32 7.05701 31.6254 6.15264 30.9586 5.48584C30.2918 4.81904 29.3874 4.44444 28.4444 4.44444Z" fill="#DA251D"/>
<path d="M17.5582 14.2551L16 9.45956L14.4418 14.2551H9.40002L13.4791 17.2178L11.9209 22.0133L16 19.0498L20.0791 22.0133L18.5209 17.2178L22.6 14.2551H17.5582Z" fill="#FFFF00"/>
</svg>
