<svg width="328" height="83" viewBox="0 0 328 83" fill="none" xmlns="http://www.w3.org/2000/svg">
<path d="M327.5 46.5C327.5 48.8571 326.429 51.202 324.3 53.5176C322.169 55.8359 319.001 58.0962 314.879 60.265C306.637 64.602 294.677 68.5229 279.857 71.8214C250.224 78.4165 209.262 82.5 164 82.5C118.738 82.5 77.7761 78.4165 48.1431 71.8214C33.3226 68.5229 21.363 64.602 13.1208 60.265C8.99914 58.0962 5.83149 55.8359 3.69997 53.5176C1.57093 51.202 0.5 48.8571 0.5 46.5C0.5 44.143 1.57093 41.798 3.69997 39.4824C5.83149 37.1641 8.99914 34.9038 13.1208 32.735C21.363 28.398 33.3226 24.4771 48.1431 21.1787C77.7761 14.5835 118.738 10.5 164 10.5C209.262 10.5 250.224 14.5835 279.857 21.1787C294.677 24.4771 306.637 28.398 314.879 32.735C319.001 34.9038 322.169 37.1641 324.3 39.4824C326.429 41.798 327.5 44.143 327.5 46.5Z" fill="black" stroke="white"/>
<path d="M327.5 36.5C327.5 38.8571 326.429 41.202 324.3 43.5176C322.169 45.8359 319.001 48.0962 314.879 50.265C306.637 54.602 294.677 58.5229 279.857 61.8214C250.224 68.4165 209.262 72.5 164 72.5C118.738 72.5 77.7761 68.4165 48.1431 61.8214C33.3226 58.5229 21.363 54.602 13.1208 50.265C8.99914 48.0962 5.83149 45.8359 3.69997 43.5176C1.57093 41.202 0.5 38.8571 0.5 36.5C0.5 34.143 1.57093 31.798 3.69997 29.4824C5.83149 27.1641 8.99914 24.9038 13.1208 22.735C21.363 18.398 33.3226 14.4771 48.1431 11.1787C77.7761 4.58352 118.738 0.5 164 0.5C209.262 0.5 250.224 4.58352 279.857 11.1787C294.677 14.4771 306.637 18.398 314.879 22.735C319.001 24.9038 322.169 27.1641 324.3 29.4824C326.429 31.798 327.5 34.143 327.5 36.5Z" fill="#81E234" stroke="white"/>
</svg>
