<svg width="32" height="33" viewBox="0 0 32 33" fill="none" xmlns="http://www.w3.org/2000/svg">
<g id="verified">
<path id="Vector 10" d="M4.3335 12.2364H5.69507L7.02507 23.6246C7.26051 25.6406 8.96843 27.1606 10.9981 27.1606H15.9998H21.0016C23.0313 27.1606 24.7392 25.6406 24.9746 23.6246L26.3046 12.2364H27.6662C28.7708 12.2364 29.6662 11.341 29.6662 10.2364V7.83939C29.6662 6.73482 28.7708 5.83939 27.6662 5.83939H15.9998H4.3335C3.22893 5.83939 2.3335 6.73482 2.3335 7.83939V10.2364C2.3335 11.341 3.22893 12.2364 4.3335 12.2364Z" fill="#51C51B"/>
<path id="Vector 11 (Stroke)" fill-rule="evenodd" clip-rule="evenodd" d="M22.0573 12.7268C22.4479 13.1173 22.4479 13.7505 22.0573 14.141L15.9251 20.2732C15.7376 20.4608 15.4832 20.5661 15.218 20.5661C14.9528 20.5661 14.6984 20.4608 14.5109 20.2732L11.2348 16.9971C10.8443 16.6066 10.8443 15.9734 11.2348 15.5829C11.6253 15.1924 12.2585 15.1924 12.649 15.5829L15.218 18.1519L20.6431 12.7268C21.0336 12.3363 21.6668 12.3363 22.0573 12.7268Z" fill="white"/>
</g>
</svg>
