<svg width="32" height="32" viewBox="0 0 32 32" fill="none" xmlns="http://www.w3.org/2000/svg">
<path d="M6.42411 13.7956C5.20667 13.7956 4.21973 14.7825 4.21973 16C4.21973 17.2175 5.20667 18.2044 6.42411 18.2044C7.64155 18.2044 8.6285 17.2175 8.6285 16C8.6285 14.7825 7.64155 13.7956 6.42411 13.7956Z" fill="#888888"/>
<path d="M16.0002 13.7956C14.7828 13.7956 13.7959 14.7825 13.7959 16C13.7959 17.2175 14.7828 18.2044 16.0002 18.2044C17.2177 18.2044 18.2046 17.2175 18.2046 16C18.2046 14.7825 17.2177 13.7956 16.0002 13.7956Z" fill="#888888"/>
<path d="M25.5106 13.7956C24.2931 13.7956 23.3062 14.7825 23.3062 16C23.3062 17.2175 24.2931 18.2044 25.5106 18.2044C26.728 18.2044 27.7149 17.2175 27.7149 16C27.7149 14.7825 26.728 13.7956 25.5106 13.7956Z" fill="#888888"/>
</svg>
